<mxfile host="app.diagrams.net" modified="2023-05-15T18:49:08.299Z" agent="Mozilla/5.0 (X11; Ubuntu; Linux x86_64; rv:100.0) Gecko/20100101 Firefox/100.0" etag="82UG4_uxz17_OEpbnWnK" version="21.3.2" type="device">
  <diagram name="Page-1" id="c4acf3e9-155e-7222-9cf6-157b1a14988f">
    <mxGraphModel dx="2023" dy="1865" grid="1" gridSize="10" guides="1" tooltips="1" connect="1" arrows="1" fold="1" page="1" pageScale="1" pageWidth="850" pageHeight="1100" background="none" math="0" shadow="0">
      <root>
        <mxCell id="0" />
        <mxCell id="1" parent="0" />
        <mxCell id="rmwUIwEnUX4lAqP1rtbb-5" value="Usuarios" style="swimlane;fontStyle=1;align=center;verticalAlign=top;childLayout=stackLayout;horizontal=1;startSize=26;horizontalStack=0;resizeParent=1;resizeParentMax=0;resizeLast=0;collapsible=1;marginBottom=0;" parent="1" vertex="1">
          <mxGeometry x="400" y="11" width="160" height="88" as="geometry">
            <mxRectangle x="210" y="10" width="90" height="30" as="alternateBounds" />
          </mxGeometry>
        </mxCell>
        <mxCell id="rmwUIwEnUX4lAqP1rtbb-6" value="- Grupo: Grupo&#xa;- Apellido : String&#xa;- Nombre : String&#xa;" style="text;strokeColor=none;fillColor=none;align=left;verticalAlign=top;spacingLeft=4;spacingRight=4;overflow=hidden;rotatable=0;points=[[0,0.5],[1,0.5]];portConstraint=eastwest;" parent="rmwUIwEnUX4lAqP1rtbb-5" vertex="1">
          <mxGeometry y="26" width="160" height="54" as="geometry" />
        </mxCell>
        <mxCell id="rmwUIwEnUX4lAqP1rtbb-7" value="" style="line;strokeWidth=1;fillColor=none;align=left;verticalAlign=middle;spacingTop=-1;spacingLeft=3;spacingRight=3;rotatable=0;labelPosition=right;points=[];portConstraint=eastwest;strokeColor=inherit;" parent="rmwUIwEnUX4lAqP1rtbb-5" vertex="1">
          <mxGeometry y="80" width="160" height="8" as="geometry" />
        </mxCell>
        <mxCell id="rmwUIwEnUX4lAqP1rtbb-9" value="Administrador" style="swimlane;fontStyle=1;align=center;verticalAlign=top;childLayout=stackLayout;horizontal=1;startSize=26;horizontalStack=0;resizeParent=1;resizeParentMax=0;resizeLast=0;collapsible=1;marginBottom=0;" parent="1" vertex="1">
          <mxGeometry x="245" y="170" width="220" height="220" as="geometry" />
        </mxCell>
        <mxCell id="rmwUIwEnUX4lAqP1rtbb-11" value="" style="line;strokeWidth=1;fillColor=none;align=left;verticalAlign=middle;spacingTop=-1;spacingLeft=3;spacingRight=3;rotatable=0;labelPosition=right;points=[];portConstraint=eastwest;strokeColor=inherit;" parent="rmwUIwEnUX4lAqP1rtbb-9" vertex="1">
          <mxGeometry y="26" width="220" height="8" as="geometry" />
        </mxCell>
        <mxCell id="rmwUIwEnUX4lAqP1rtbb-12" value="- altas(Usuario): void&#xa;- bajas(Usuario): void&#xa;- modificacións(Usuario): void&#xa;- asignarGrupo(Usuario): void&#xa;- notificación(Usuario): void&#xa;&#xa;- alta(Documento): void&#xa;- baja(Documento): void&#xa;- modificación(Documento): void&#xa;- consulta(Documento): void&#xa;- copiasSeguridad(Documento): void&#xa;- restauración(Documento): void" style="text;strokeColor=none;fillColor=none;align=left;verticalAlign=top;spacingLeft=4;spacingRight=4;overflow=hidden;rotatable=0;points=[[0,0.5],[1,0.5]];portConstraint=eastwest;" parent="rmwUIwEnUX4lAqP1rtbb-9" vertex="1">
          <mxGeometry y="34" width="220" height="186" as="geometry" />
        </mxCell>
        <mxCell id="rmwUIwEnUX4lAqP1rtbb-13" value="Gestor" style="swimlane;fontStyle=1;align=center;verticalAlign=top;childLayout=stackLayout;horizontal=1;startSize=26;horizontalStack=0;resizeParent=1;resizeParentMax=0;resizeLast=0;collapsible=1;marginBottom=0;" parent="1" vertex="1">
          <mxGeometry x="500" y="170" width="210" height="134" as="geometry" />
        </mxCell>
        <mxCell id="rmwUIwEnUX4lAqP1rtbb-15" value="" style="line;strokeWidth=1;fillColor=none;align=left;verticalAlign=middle;spacingTop=-1;spacingLeft=3;spacingRight=3;rotatable=0;labelPosition=right;points=[];portConstraint=eastwest;strokeColor=inherit;" parent="rmwUIwEnUX4lAqP1rtbb-13" vertex="1">
          <mxGeometry y="26" width="210" height="8" as="geometry" />
        </mxCell>
        <mxCell id="rmwUIwEnUX4lAqP1rtbb-16" value="- alta(Documento): void&#xa;- baja(Documento): void&#xa;- modificación(Documento): void&#xa;- consulta(Documento): void&#xa;- copiasSeguridad(Documento): void&#xa;- restauración(Documento): void&#xa;&#xa;" style="text;strokeColor=none;fillColor=none;align=left;verticalAlign=top;spacingLeft=4;spacingRight=4;overflow=hidden;rotatable=0;points=[[0,0.5],[1,0.5]];portConstraint=eastwest;" parent="rmwUIwEnUX4lAqP1rtbb-13" vertex="1">
          <mxGeometry y="34" width="210" height="100" as="geometry" />
        </mxCell>
        <mxCell id="rmwUIwEnUX4lAqP1rtbb-17" value="Socio" style="swimlane;fontStyle=1;align=center;verticalAlign=top;childLayout=stackLayout;horizontal=1;startSize=26;horizontalStack=0;resizeParent=1;resizeParentMax=0;resizeLast=0;collapsible=1;marginBottom=0;" parent="1" vertex="1">
          <mxGeometry x="-70" y="-50" width="280" height="120" as="geometry" />
        </mxCell>
        <mxCell id="rmwUIwEnUX4lAqP1rtbb-19" value="" style="line;strokeWidth=1;fillColor=none;align=left;verticalAlign=middle;spacingTop=-1;spacingLeft=3;spacingRight=3;rotatable=0;labelPosition=right;points=[];portConstraint=eastwest;strokeColor=inherit;" parent="rmwUIwEnUX4lAqP1rtbb-17" vertex="1">
          <mxGeometry y="26" width="280" height="8" as="geometry" />
        </mxCell>
        <mxCell id="rmwUIwEnUX4lAqP1rtbb-20" value="- editarPerfil(): boolean&#xa;- consultarDocumentos(): Document&#xa;- realizarReserva(Socio, Documento): Reserva&#xa;- añadirComentarios(Documento): void&#xa;- consultarReservas(Documento): Reserva&#xa;&#xa;" style="text;strokeColor=none;fillColor=none;align=left;verticalAlign=top;spacingLeft=4;spacingRight=4;overflow=hidden;rotatable=0;points=[[0,0.5],[1,0.5]];portConstraint=eastwest;" parent="rmwUIwEnUX4lAqP1rtbb-17" vertex="1">
          <mxGeometry y="34" width="280" height="86" as="geometry" />
        </mxCell>
        <mxCell id="rmwUIwEnUX4lAqP1rtbb-21" value="Documento" style="swimlane;fontStyle=1;align=center;verticalAlign=top;childLayout=stackLayout;horizontal=1;startSize=26;horizontalStack=0;resizeParent=1;resizeParentMax=0;resizeLast=0;collapsible=1;marginBottom=0;" parent="1" vertex="1">
          <mxGeometry x="735" y="-50" width="220" height="340" as="geometry">
            <mxRectangle x="735" y="-50" width="110" height="30" as="alternateBounds" />
          </mxGeometry>
        </mxCell>
        <mxCell id="rmwUIwEnUX4lAqP1rtbb-22" value="- isbn: String" style="text;strokeColor=none;fillColor=none;align=left;verticalAlign=top;spacingLeft=4;spacingRight=4;overflow=hidden;rotatable=0;points=[[0,0.5],[1,0.5]];portConstraint=eastwest;" parent="rmwUIwEnUX4lAqP1rtbb-21" vertex="1">
          <mxGeometry y="26" width="220" height="24" as="geometry" />
        </mxCell>
        <mxCell id="QH2LY_XDc_maejHYzju6-23" value="- tipo_documento: String" style="text;strokeColor=none;fillColor=none;align=left;verticalAlign=top;spacingLeft=4;spacingRight=4;overflow=hidden;rotatable=0;points=[[0,0.5],[1,0.5]];portConstraint=eastwest;" vertex="1" parent="rmwUIwEnUX4lAqP1rtbb-21">
          <mxGeometry y="50" width="220" height="24" as="geometry" />
        </mxCell>
        <mxCell id="QH2LY_XDc_maejHYzju6-24" value="- nombre_documento: String" style="text;strokeColor=none;fillColor=none;align=left;verticalAlign=top;spacingLeft=4;spacingRight=4;overflow=hidden;rotatable=0;points=[[0,0.5],[1,0.5]];portConstraint=eastwest;" vertex="1" parent="rmwUIwEnUX4lAqP1rtbb-21">
          <mxGeometry y="74" width="220" height="24" as="geometry" />
        </mxCell>
        <mxCell id="QH2LY_XDc_maejHYzju6-25" value="- descripcion: String" style="text;strokeColor=none;fillColor=none;align=left;verticalAlign=top;spacingLeft=4;spacingRight=4;overflow=hidden;rotatable=0;points=[[0,0.5],[1,0.5]];portConstraint=eastwest;" vertex="1" parent="rmwUIwEnUX4lAqP1rtbb-21">
          <mxGeometry y="98" width="220" height="24" as="geometry" />
        </mxCell>
        <mxCell id="QH2LY_XDc_maejHYzju6-27" value="- editorial_productora: String" style="text;strokeColor=none;fillColor=none;align=left;verticalAlign=top;spacingLeft=4;spacingRight=4;overflow=hidden;rotatable=0;points=[[0,0.5],[1,0.5]];portConstraint=eastwest;" vertex="1" parent="rmwUIwEnUX4lAqP1rtbb-21">
          <mxGeometry y="122" width="220" height="24" as="geometry" />
        </mxCell>
        <mxCell id="QH2LY_XDc_maejHYzju6-28" value="- npaginas_duracion: String" style="text;strokeColor=none;fillColor=none;align=left;verticalAlign=top;spacingLeft=4;spacingRight=4;overflow=hidden;rotatable=0;points=[[0,0.5],[1,0.5]];portConstraint=eastwest;" vertex="1" parent="rmwUIwEnUX4lAqP1rtbb-21">
          <mxGeometry y="146" width="220" height="24" as="geometry" />
        </mxCell>
        <mxCell id="QH2LY_XDc_maejHYzju6-29" value="- formato: String" style="text;strokeColor=none;fillColor=none;align=left;verticalAlign=top;spacingLeft=4;spacingRight=4;overflow=hidden;rotatable=0;points=[[0,0.5],[1,0.5]];portConstraint=eastwest;" vertex="1" parent="rmwUIwEnUX4lAqP1rtbb-21">
          <mxGeometry y="170" width="220" height="24" as="geometry" />
        </mxCell>
        <mxCell id="rmwUIwEnUX4lAqP1rtbb-23" value="" style="line;strokeWidth=1;fillColor=none;align=left;verticalAlign=middle;spacingTop=-1;spacingLeft=3;spacingRight=3;rotatable=0;labelPosition=right;points=[];portConstraint=eastwest;strokeColor=inherit;" parent="rmwUIwEnUX4lAqP1rtbb-21" vertex="1">
          <mxGeometry y="194" width="220" height="8" as="geometry" />
        </mxCell>
        <mxCell id="rmwUIwEnUX4lAqP1rtbb-24" value="- alta(Documento): void&#xa;- baja(Documento): void&#xa;- modificación(Documento): void&#xa;- consulta(Documento): void&#xa;- copiasSeguridad(Documento): void&#xa;- restauración(Documento): void&#xa;- getAutores():Autores&#xa;- getcategoria():Catgoria&#xa;" style="text;strokeColor=none;fillColor=none;align=left;verticalAlign=top;spacingLeft=4;spacingRight=4;overflow=hidden;rotatable=0;points=[[0,0.5],[1,0.5]];portConstraint=eastwest;" parent="rmwUIwEnUX4lAqP1rtbb-21" vertex="1">
          <mxGeometry y="202" width="220" height="138" as="geometry" />
        </mxCell>
        <mxCell id="rmwUIwEnUX4lAqP1rtbb-25" value="Biblioteca" style="swimlane;fontStyle=1;align=center;verticalAlign=top;childLayout=stackLayout;horizontal=1;startSize=26;horizontalStack=0;resizeParent=1;resizeParentMax=0;resizeLast=0;collapsible=1;marginBottom=0;" parent="1" vertex="1">
          <mxGeometry x="425" y="-158" width="210" height="78" as="geometry">
            <mxRectangle x="20" y="10" width="100" height="30" as="alternateBounds" />
          </mxGeometry>
        </mxCell>
        <mxCell id="rmwUIwEnUX4lAqP1rtbb-26" value="- nombre: String&#xa;- documentos: Array (Documento)" style="text;strokeColor=none;fillColor=none;align=left;verticalAlign=top;spacingLeft=4;spacingRight=4;overflow=hidden;rotatable=0;points=[[0,0.5],[1,0.5]];portConstraint=eastwest;" parent="rmwUIwEnUX4lAqP1rtbb-25" vertex="1">
          <mxGeometry y="26" width="210" height="44" as="geometry" />
        </mxCell>
        <mxCell id="rmwUIwEnUX4lAqP1rtbb-27" value="" style="line;strokeWidth=1;fillColor=none;align=left;verticalAlign=middle;spacingTop=-1;spacingLeft=3;spacingRight=3;rotatable=0;labelPosition=right;points=[];portConstraint=eastwest;strokeColor=inherit;" parent="rmwUIwEnUX4lAqP1rtbb-25" vertex="1">
          <mxGeometry y="70" width="210" height="8" as="geometry" />
        </mxCell>
        <mxCell id="rmwUIwEnUX4lAqP1rtbb-34" value="Reserva" style="swimlane;fontStyle=1;align=center;verticalAlign=top;childLayout=stackLayout;horizontal=1;startSize=26;horizontalStack=0;resizeParent=1;resizeParentMax=0;resizeLast=0;collapsible=1;marginBottom=0;" parent="1" vertex="1">
          <mxGeometry x="-160" y="190" width="170" height="78" as="geometry" />
        </mxCell>
        <mxCell id="rmwUIwEnUX4lAqP1rtbb-35" value="- fechaReserva: String&#xa;- diasPendientes: INT&#xa;" style="text;strokeColor=none;fillColor=none;align=left;verticalAlign=top;spacingLeft=4;spacingRight=4;overflow=hidden;rotatable=0;points=[[0,0.5],[1,0.5]];portConstraint=eastwest;" parent="rmwUIwEnUX4lAqP1rtbb-34" vertex="1">
          <mxGeometry y="26" width="170" height="44" as="geometry" />
        </mxCell>
        <mxCell id="rmwUIwEnUX4lAqP1rtbb-36" value="" style="line;strokeWidth=1;fillColor=none;align=left;verticalAlign=middle;spacingTop=-1;spacingLeft=3;spacingRight=3;rotatable=0;labelPosition=right;points=[];portConstraint=eastwest;strokeColor=inherit;" parent="rmwUIwEnUX4lAqP1rtbb-34" vertex="1">
          <mxGeometry y="70" width="170" height="8" as="geometry" />
        </mxCell>
        <mxCell id="rmwUIwEnUX4lAqP1rtbb-41" value="" style="endArrow=diamondThin;endFill=1;endSize=24;html=1;rounded=0;" parent="1" source="rmwUIwEnUX4lAqP1rtbb-5" target="rmwUIwEnUX4lAqP1rtbb-25" edge="1">
          <mxGeometry width="160" relative="1" as="geometry">
            <mxPoint x="320" y="100" as="sourcePoint" />
            <mxPoint x="230" y="100" as="targetPoint" />
          </mxGeometry>
        </mxCell>
        <mxCell id="rmwUIwEnUX4lAqP1rtbb-42" value="1" style="text;html=1;strokeColor=none;fillColor=none;align=center;verticalAlign=middle;whiteSpace=wrap;rounded=0;" parent="1" vertex="1">
          <mxGeometry x="460" y="-80" width="60" height="30" as="geometry" />
        </mxCell>
        <mxCell id="rmwUIwEnUX4lAqP1rtbb-43" value="*" style="text;html=1;strokeColor=none;fillColor=none;align=center;verticalAlign=middle;whiteSpace=wrap;rounded=0;" parent="1" vertex="1">
          <mxGeometry x="450" y="-19" width="60" height="30" as="geometry" />
        </mxCell>
        <mxCell id="rmwUIwEnUX4lAqP1rtbb-46" value="" style="endArrow=block;dashed=1;endFill=0;endSize=12;html=1;rounded=0;" parent="1" source="rmwUIwEnUX4lAqP1rtbb-9" target="rmwUIwEnUX4lAqP1rtbb-5" edge="1">
          <mxGeometry width="160" relative="1" as="geometry">
            <mxPoint x="300" y="320" as="sourcePoint" />
            <mxPoint x="460" y="320" as="targetPoint" />
          </mxGeometry>
        </mxCell>
        <mxCell id="rmwUIwEnUX4lAqP1rtbb-51" value="1" style="text;html=1;strokeColor=none;fillColor=none;align=center;verticalAlign=middle;whiteSpace=wrap;rounded=0;" parent="1" vertex="1">
          <mxGeometry x="600" y="-80" width="60" height="30" as="geometry" />
        </mxCell>
        <mxCell id="rmwUIwEnUX4lAqP1rtbb-59" value="*" style="text;html=1;strokeColor=none;fillColor=none;align=center;verticalAlign=middle;whiteSpace=wrap;rounded=0;" parent="1" vertex="1">
          <mxGeometry x="700" width="40" height="30" as="geometry" />
        </mxCell>
        <mxCell id="rmwUIwEnUX4lAqP1rtbb-60" value="" style="endArrow=block;dashed=1;endFill=0;endSize=12;html=1;rounded=0;" parent="1" source="rmwUIwEnUX4lAqP1rtbb-17" target="rmwUIwEnUX4lAqP1rtbb-5" edge="1">
          <mxGeometry width="160" relative="1" as="geometry">
            <mxPoint x="220" y="306" as="sourcePoint" />
            <mxPoint x="295" y="258" as="targetPoint" />
          </mxGeometry>
        </mxCell>
        <mxCell id="QH2LY_XDc_maejHYzju6-2" value="Autores" style="swimlane;fontStyle=1;align=center;verticalAlign=top;childLayout=stackLayout;horizontal=1;startSize=26;horizontalStack=0;resizeParent=1;resizeParentMax=0;resizeLast=0;collapsible=1;marginBottom=0;" vertex="1" parent="1">
          <mxGeometry x="740" y="-138" width="210" height="58" as="geometry" />
        </mxCell>
        <mxCell id="QH2LY_XDc_maejHYzju6-3" value="- nombreAutor: String&#xa;&#xa;" style="text;strokeColor=none;fillColor=none;align=left;verticalAlign=top;spacingLeft=4;spacingRight=4;overflow=hidden;rotatable=0;points=[[0,0.5],[1,0.5]];portConstraint=eastwest;" vertex="1" parent="QH2LY_XDc_maejHYzju6-2">
          <mxGeometry y="26" width="210" height="24" as="geometry" />
        </mxCell>
        <mxCell id="QH2LY_XDc_maejHYzju6-4" value="" style="line;strokeWidth=1;fillColor=none;align=left;verticalAlign=middle;spacingTop=-1;spacingLeft=3;spacingRight=3;rotatable=0;labelPosition=right;points=[];portConstraint=eastwest;strokeColor=inherit;" vertex="1" parent="QH2LY_XDc_maejHYzju6-2">
          <mxGeometry y="50" width="210" height="8" as="geometry" />
        </mxCell>
        <mxCell id="QH2LY_XDc_maejHYzju6-6" value="" style="endArrow=block;dashed=1;endFill=0;endSize=12;html=1;rounded=0;" edge="1" parent="1" source="QH2LY_XDc_maejHYzju6-2" target="rmwUIwEnUX4lAqP1rtbb-21">
          <mxGeometry width="160" relative="1" as="geometry">
            <mxPoint x="810" y="80" as="sourcePoint" />
            <mxPoint x="670" y="80" as="targetPoint" />
          </mxGeometry>
        </mxCell>
        <mxCell id="QH2LY_XDc_maejHYzju6-31" value="" style="endArrow=block;dashed=1;endFill=0;endSize=12;html=1;rounded=0;" edge="1" parent="1" source="rmwUIwEnUX4lAqP1rtbb-5" target="rmwUIwEnUX4lAqP1rtbb-21">
          <mxGeometry width="160" relative="1" as="geometry">
            <mxPoint x="550" y="200" as="sourcePoint" />
            <mxPoint x="710" y="200" as="targetPoint" />
          </mxGeometry>
        </mxCell>
        <mxCell id="QH2LY_XDc_maejHYzju6-32" value="" style="endArrow=diamondThin;endFill=0;endSize=24;html=1;rounded=0;" edge="1" parent="1" source="rmwUIwEnUX4lAqP1rtbb-21" target="rmwUIwEnUX4lAqP1rtbb-25">
          <mxGeometry width="160" relative="1" as="geometry">
            <mxPoint x="550" y="260" as="sourcePoint" />
            <mxPoint x="710" y="260" as="targetPoint" />
          </mxGeometry>
        </mxCell>
        <mxCell id="QH2LY_XDc_maejHYzju6-33" value="" style="endArrow=block;dashed=1;endFill=0;endSize=12;html=1;rounded=0;" edge="1" parent="1" source="rmwUIwEnUX4lAqP1rtbb-13" target="rmwUIwEnUX4lAqP1rtbb-5">
          <mxGeometry width="160" relative="1" as="geometry">
            <mxPoint x="550" y="190" as="sourcePoint" />
            <mxPoint x="710" y="190" as="targetPoint" />
          </mxGeometry>
        </mxCell>
        <mxCell id="QH2LY_XDc_maejHYzju6-35" value="Prestamo" style="swimlane;fontStyle=1;align=center;verticalAlign=top;childLayout=stackLayout;horizontal=1;startSize=26;horizontalStack=0;resizeParent=1;resizeParentMax=0;resizeLast=0;collapsible=1;marginBottom=0;" vertex="1" parent="1">
          <mxGeometry x="70" y="190" width="160" height="88" as="geometry" />
        </mxCell>
        <mxCell id="QH2LY_XDc_maejHYzju6-36" value="- fechaPrestamo: String&#xa;- fechaDevolucion: String&#xa;- diasRetardo: INT&#xa;" style="text;strokeColor=none;fillColor=none;align=left;verticalAlign=top;spacingLeft=4;spacingRight=4;overflow=hidden;rotatable=0;points=[[0,0.5],[1,0.5]];portConstraint=eastwest;" vertex="1" parent="QH2LY_XDc_maejHYzju6-35">
          <mxGeometry y="26" width="160" height="54" as="geometry" />
        </mxCell>
        <mxCell id="QH2LY_XDc_maejHYzju6-37" value="" style="line;strokeWidth=1;fillColor=none;align=left;verticalAlign=middle;spacingTop=-1;spacingLeft=3;spacingRight=3;rotatable=0;labelPosition=right;points=[];portConstraint=eastwest;strokeColor=inherit;" vertex="1" parent="QH2LY_XDc_maejHYzju6-35">
          <mxGeometry y="80" width="160" height="8" as="geometry" />
        </mxCell>
        <mxCell id="QH2LY_XDc_maejHYzju6-38" value="" style="endArrow=none;html=1;rounded=0;" edge="1" parent="1" source="rmwUIwEnUX4lAqP1rtbb-34" target="rmwUIwEnUX4lAqP1rtbb-17">
          <mxGeometry width="50" height="50" relative="1" as="geometry">
            <mxPoint x="340" y="20" as="sourcePoint" />
            <mxPoint x="390" y="-30" as="targetPoint" />
          </mxGeometry>
        </mxCell>
        <mxCell id="QH2LY_XDc_maejHYzju6-39" value="" style="endArrow=none;html=1;rounded=0;" edge="1" parent="1" source="QH2LY_XDc_maejHYzju6-35" target="rmwUIwEnUX4lAqP1rtbb-17">
          <mxGeometry width="50" height="50" relative="1" as="geometry">
            <mxPoint x="340" y="20" as="sourcePoint" />
            <mxPoint x="390" y="-30" as="targetPoint" />
          </mxGeometry>
        </mxCell>
        <mxCell id="QH2LY_XDc_maejHYzju6-40" value="1" style="text;html=1;strokeColor=none;fillColor=none;align=center;verticalAlign=middle;whiteSpace=wrap;rounded=0;" vertex="1" parent="1">
          <mxGeometry x="-40" y="69" width="60" height="30" as="geometry" />
        </mxCell>
        <mxCell id="QH2LY_XDc_maejHYzju6-42" value="*" style="text;html=1;strokeColor=none;fillColor=none;align=center;verticalAlign=middle;whiteSpace=wrap;rounded=0;" vertex="1" parent="1">
          <mxGeometry x="-90" y="160" width="60" height="30" as="geometry" />
        </mxCell>
        <mxCell id="QH2LY_XDc_maejHYzju6-43" value="*" style="text;html=1;strokeColor=none;fillColor=none;align=center;verticalAlign=middle;whiteSpace=wrap;rounded=0;" vertex="1" parent="1">
          <mxGeometry x="120" y="160" width="60" height="30" as="geometry" />
        </mxCell>
        <mxCell id="QH2LY_XDc_maejHYzju6-44" value="1" style="text;html=1;strokeColor=none;fillColor=none;align=center;verticalAlign=middle;whiteSpace=wrap;rounded=0;" vertex="1" parent="1">
          <mxGeometry x="90" y="69" width="60" height="30" as="geometry" />
        </mxCell>
        <mxCell id="QH2LY_XDc_maejHYzju6-46" value="Grupo" style="swimlane;fontStyle=1;align=center;verticalAlign=top;childLayout=stackLayout;horizontal=1;startSize=26;horizontalStack=0;resizeParent=1;resizeParentMax=0;resizeLast=0;collapsible=1;marginBottom=0;" vertex="1" parent="1">
          <mxGeometry x="200" y="-158" width="160" height="58" as="geometry">
            <mxRectangle x="210" y="10" width="90" height="30" as="alternateBounds" />
          </mxGeometry>
        </mxCell>
        <mxCell id="QH2LY_XDc_maejHYzju6-47" value="- Descripcion: String" style="text;strokeColor=none;fillColor=none;align=left;verticalAlign=top;spacingLeft=4;spacingRight=4;overflow=hidden;rotatable=0;points=[[0,0.5],[1,0.5]];portConstraint=eastwest;" vertex="1" parent="QH2LY_XDc_maejHYzju6-46">
          <mxGeometry y="26" width="160" height="24" as="geometry" />
        </mxCell>
        <mxCell id="QH2LY_XDc_maejHYzju6-48" value="" style="line;strokeWidth=1;fillColor=none;align=left;verticalAlign=middle;spacingTop=-1;spacingLeft=3;spacingRight=3;rotatable=0;labelPosition=right;points=[];portConstraint=eastwest;strokeColor=inherit;" vertex="1" parent="QH2LY_XDc_maejHYzju6-46">
          <mxGeometry y="50" width="160" height="8" as="geometry" />
        </mxCell>
        <mxCell id="QH2LY_XDc_maejHYzju6-49" value="" style="endArrow=diamondThin;endFill=1;endSize=24;html=1;rounded=0;" edge="1" parent="1" source="rmwUIwEnUX4lAqP1rtbb-5" target="QH2LY_XDc_maejHYzju6-46">
          <mxGeometry width="160" relative="1" as="geometry">
            <mxPoint x="270" y="-60" as="sourcePoint" />
            <mxPoint x="500" y="190" as="targetPoint" />
          </mxGeometry>
        </mxCell>
        <mxCell id="QH2LY_XDc_maejHYzju6-50" value="*" style="text;html=1;strokeColor=none;fillColor=none;align=center;verticalAlign=middle;whiteSpace=wrap;rounded=0;" vertex="1" parent="1">
          <mxGeometry x="365" y="-10" width="60" height="30" as="geometry" />
        </mxCell>
        <mxCell id="QH2LY_XDc_maejHYzju6-51" value="1" style="text;html=1;strokeColor=none;fillColor=none;align=center;verticalAlign=middle;whiteSpace=wrap;rounded=0;" vertex="1" parent="1">
          <mxGeometry x="270" y="-100" width="60" height="30" as="geometry" />
        </mxCell>
        <mxCell id="QH2LY_XDc_maejHYzju6-54" value="Categoria" style="swimlane;fontStyle=1;align=center;verticalAlign=top;childLayout=stackLayout;horizontal=1;startSize=26;horizontalStack=0;resizeParent=1;resizeParentMax=0;resizeLast=0;collapsible=1;marginBottom=0;" vertex="1" parent="1">
          <mxGeometry x="765" y="330" width="160" height="78" as="geometry">
            <mxRectangle x="210" y="10" width="90" height="30" as="alternateBounds" />
          </mxGeometry>
        </mxCell>
        <mxCell id="QH2LY_XDc_maejHYzju6-55" value="- Nombre : String&#xa;- descripcion: Grupo" style="text;strokeColor=none;fillColor=none;align=left;verticalAlign=top;spacingLeft=4;spacingRight=4;overflow=hidden;rotatable=0;points=[[0,0.5],[1,0.5]];portConstraint=eastwest;" vertex="1" parent="QH2LY_XDc_maejHYzju6-54">
          <mxGeometry y="26" width="160" height="44" as="geometry" />
        </mxCell>
        <mxCell id="QH2LY_XDc_maejHYzju6-56" value="" style="line;strokeWidth=1;fillColor=none;align=left;verticalAlign=middle;spacingTop=-1;spacingLeft=3;spacingRight=3;rotatable=0;labelPosition=right;points=[];portConstraint=eastwest;strokeColor=inherit;" vertex="1" parent="QH2LY_XDc_maejHYzju6-54">
          <mxGeometry y="70" width="160" height="8" as="geometry" />
        </mxCell>
        <mxCell id="QH2LY_XDc_maejHYzju6-57" value="" style="endArrow=block;dashed=1;endFill=0;endSize=12;html=1;rounded=0;" edge="1" parent="1" source="QH2LY_XDc_maejHYzju6-54" target="rmwUIwEnUX4lAqP1rtbb-21">
          <mxGeometry width="160" relative="1" as="geometry">
            <mxPoint x="330" y="160" as="sourcePoint" />
            <mxPoint x="490" y="160" as="targetPoint" />
          </mxGeometry>
        </mxCell>
      </root>
    </mxGraphModel>
  </diagram>
</mxfile>
